<?xml version="1.0"?>
<svg xmlns="http://www.w3.org/2000/svg" id="Capa_1" enable-background="new 0 0 512 512" height="512px" viewBox="0 0 512 512" width="512px" class="hovered-paths"><g><g id="XMLID_2157_"><path id="XMLID_2196_" d="m276.139 455.642-5.139 5.14v-116.008h-30v116.008l-5.139-5.14c-5.856-5.859-15.354-5.859-21.213-.002-5.858 5.857-5.859 15.355-.002 21.213l30.746 30.753c2.813 2.813 6.629 4.394 10.608 4.394s7.795-1.581 10.607-4.395l30.746-30.752c5.857-5.858 5.856-15.356-.002-21.213-5.857-5.857-15.355-5.856-21.212.002z" data-original="#000000" class="hovered-path active-path" data-old_color="#000000" fill="#EA548D"/><path id="XMLID_2195_" d="m464.121 358.346c-5.855-5.859-15.354-5.859-21.213-.002-5.858 5.857-5.859 15.355-.002 21.213l5.406 5.407h-62.425v-40.19h-30v55.19c0 8.284 6.716 15 15 15h76.904l-4.886 4.887c-5.857 5.858-5.856 15.356.002 21.213 2.929 2.928 6.768 4.392 10.605 4.392 3.839 0 7.679-1.465 10.607-4.395l30.746-30.752c5.856-5.857 5.856-15.354 0-21.211z" data-original="#000000" class="hovered-path active-path" data-old_color="#000000" fill="#EA548D"/><path id="XMLID_2162_" d="m126.112 384.964h-62.424l5.406-5.407c5.857-5.858 5.856-15.356-.002-21.213-5.857-5.856-15.355-5.856-21.213.002l-30.746 30.752c-5.856 5.857-5.856 15.354 0 21.211l30.746 30.752c2.929 2.93 6.768 4.395 10.607 4.395 3.838 0 7.677-1.464 10.605-4.392 5.858-5.857 5.859-15.355.002-21.213l-4.886-4.887h76.904c8.284 0 15-6.716 15-15v-55.19h-30v40.19z" data-original="#000000" class="hovered-path active-path" data-old_color="#000000" fill="#EA548D"/><path id="XMLID_2161_" d="m385.888 127.23h62.425l-5.406 5.408c-5.857 5.858-5.856 15.356.002 21.213 2.929 2.928 6.767 4.392 10.605 4.392s7.679-1.465 10.607-4.395l30.746-30.753c5.856-5.857 5.856-15.354 0-21.211l-30.746-30.752c-5.855-5.859-15.354-5.859-21.213-.002-5.858 5.857-5.859 15.355-.002 21.213l4.886 4.887h-76.904c-8.284 0-15 6.716-15 15v55.027h30z" data-original="#000000" class="hovered-path active-path" data-old_color="#000000" fill="#EA548D"/><path id="XMLID_2160_" d="m47.879 153.849c2.929 2.93 6.768 4.395 10.607 4.395 3.838 0 7.677-1.464 10.605-4.392 5.858-5.857 5.859-15.355.002-21.213l-5.406-5.408h62.425v40.027h30v-55.028c0-8.284-6.716-15-15-15h-76.904l4.886-4.887c5.857-5.858 5.856-15.356-.002-21.213-5.857-5.856-15.355-5.856-21.213.002l-30.746 30.752c-5.856 5.857-5.856 15.354 0 21.211z" data-original="#000000" class="hovered-path active-path" data-old_color="#000000" fill="#EA548D"/><path id="XMLID_2153_" d="m42.042 197.257c-13.149 0-23.808 10.659-23.808 23.808v69.9c0 13.149 10.659 23.808 23.808 23.808h427.916c13.149 0 23.809-10.659 23.809-23.808v-69.9c0-13.149-10.66-23.808-23.809-23.808zm26.424 74.002c-8.417 0-15.24-6.825-15.24-15.243s6.823-15.243 15.24-15.243 15.24 6.825 15.24 15.243-6.823 15.243-15.24 15.243zm52.135 0c-8.417 0-15.24-6.825-15.24-15.243s6.823-15.243 15.24-15.243 15.24 6.825 15.24 15.243-6.823 15.243-15.24 15.243zm52.134 0c-8.417 0-15.24-6.825-15.24-15.243s6.823-15.243 15.24-15.243 15.24 6.825 15.24 15.243-6.823 15.243-15.24 15.243zm270.799 0c-8.417 0-15.24-6.825-15.24-15.243s6.823-15.243 15.24-15.243 15.24 6.825 15.24 15.243-6.823 15.243-15.24 15.243z" data-original="#000000" class="hovered-path active-path" data-old_color="#000000" fill="#EA548D"/><path id="XMLID_62_" d="m225.255 60.753c3.839 0 7.679-1.465 10.608-4.395l5.137-5.138v116.037h30v-116.039l5.139 5.14c5.856 5.859 15.354 5.859 21.213.002 5.858-5.857 5.859-15.355.002-21.213l-30.747-30.752c-2.812-2.814-6.628-4.395-10.607-4.395s-7.795 1.581-10.608 4.395l-30.745 30.753c-5.856 5.859-5.855 15.356.003 21.213 2.928 2.928 6.766 4.392 10.605 4.392z" data-original="#000000" class="hovered-path active-path" data-old_color="#000000" fill="#EA548D"/></g></g> </svg>
