<?xml version="1.0"?>
<svg xmlns="http://www.w3.org/2000/svg" xmlns:xlink="http://www.w3.org/1999/xlink" version="1.1" id="Capa_1" x="0px" y="0px" viewBox="0 0 512 512" style="enable-background:new 0 0 512 512;" xml:space="preserve" width="512px" height="512px"><g><g>
	<path d="M105,210c8.291,0,15,6.709,15,15v45h32.563c6.196-17.461,22.881-30,42.437-30s36.24,12.539,42.437,30H270v-45   c0-8.291,6.709-15,15-15c8.276,0,15-6.724,15-15s-6.724-15-15-15c-8.291,0-15-6.709-15-15v-45h-32.563   c-6.196,17.461-22.881,30-42.437,30s-36.24-12.539-42.437-30H120v45c0,8.291-6.709,15-15,15c-8.276,0-15,6.724-15,15   S96.724,210,105,210z" data-original="#000000" class="active-path" data-old_color="#000000" fill="#EA548D"/>
	<path d="M195,390c107.52,0,195-87.48,195-195S302.52,0,195,0S0,87.48,0,195S87.48,390,195,390z M90,152.563V105   c0-8.291,6.709-15,15-15h60c8.291,0,15,6.709,15,15c0,8.276,6.724,15,15,15s15-6.724,15-15c0-8.291,6.709-15,15-15h60   c8.291,0,15,6.709,15,15v47.563c17.461,6.196,30,22.881,30,42.437s-12.539,36.24-30,42.437V285c0,8.291-6.709,15-15,15h-60   c-8.291,0-15-6.709-15-15c0-8.276-6.724-15-15-15s-15,6.724-15,15c0,8.291-6.709,15-15,15h-60c-8.291,0-15-6.709-15-15v-47.563   C72.539,231.24,60,214.556,60,195S72.539,158.76,90,152.563z" data-original="#000000" class="active-path" data-old_color="#000000" fill="#EA548D"/>
	<path d="M318.959,382.592l24.119,24.119l63.633-63.633l-24.119-24.119C365.858,344.196,344.196,365.858,318.959,382.592z" data-original="#000000" class="active-path" data-old_color="#000000" fill="#EA548D"/>
	<path d="M498.848,435.214l-70.926-70.925l-63.633,63.633l70.926,70.925c17.494,17.521,46.033,17.554,63.647,0   C516.382,481.283,516.382,452.748,498.848,435.214z" data-original="#000000" class="active-path" data-old_color="#000000" fill="#EA548D"/>
</g></g> </svg>
