<svg xmlns="http://www.w3.org/2000/svg" viewBox="0 0 400 400" width="400" height="400">
	<style>
		tspan { white-space:pre }
		.shp0 { fill: #ea548d } 
	</style>
	<g id="Layer">
		<path id="Layer" class="shp0" d="M-0.73,-0.73h400.73v400.73h-400.73zM291.8,182.78c-21.75,4.13 -36.83,18.06 -41.09,38.04c-1.21,5.72 -0.83,19.91 0.7,25.57c1.84,6.81 6.3,14.95 11,20.04c8.14,8.78 17.05,14.31 37.72,23.22c18.06,7.82 24.43,11.58 27.54,16.03c2.42,3.5 2.99,5.53 2.99,10.18c0,5.15 -1.53,8.65 -5.22,12.02c-8.65,7.76 -26.21,8.71 -38.99,1.97c-4.45,-2.35 -11.83,-9.41 -15.2,-14.57l-2.42,-3.56l-11.51,6.68c-6.36,3.69 -13.1,7.57 -14.88,8.59c-1.84,1.08 -3.5,2.1 -3.69,2.35c-0.45,0.76 6.74,11.39 10.43,15.46c9.41,10.43 24.68,18.38 40.77,21.24c7.38,1.34 23.66,1.53 30.53,0.32c22.2,-3.75 37.97,-15.07 44.33,-31.74c5.79,-15.33 3.88,-35.94 -4.64,-48.85c-7.63,-11.58 -19.91,-19.72 -48.6,-32.06c-15.58,-6.74 -20.55,-10.05 -23.22,-15.58c-1.27,-2.54 -1.72,-4.39 -1.72,-7.51c-0.06,-10.62 7.76,-16.98 19.91,-16.16c8.27,0.57 13.68,3.82 18.83,11.32c1.72,2.54 3.24,4.2 3.63,3.94c10.56,-6.55 27.99,-18.26 27.86,-18.76c-0.45,-1.72 -5.92,-8.91 -9.6,-12.85c-7.12,-7.38 -14.88,-11.89 -25.06,-14.44c-6.93,-1.72 -23.34,-2.23 -30.4,-0.89zM227.94,184.05l-70.03,-0.19c-38.48,-0.06 -70.22,0.06 -70.41,0.32c-0.25,0.19 -0.45,7.63 -0.45,16.54v16.09h52.16v148.21h36.89v-148.21h52.16l-0.13,-16.41z" />
	</g>
</svg>