<?xml version="1.0"?>
<svg xmlns="http://www.w3.org/2000/svg" height="512px" viewBox="-21 0 511 512" width="512px" class=""><g><path d="m468.984375 180.710938c0-48.089844-18.84375-93.417969-53.070313-127.640626-34.222656-34.222656-79.550781-53.070312-127.636718-53.070312h-107.074219s0 0-.003906 0c-48.082031 0-93.410157 18.847656-127.628907 53.070312-34.222656 34.222657-53.070312 79.550782-53.070312 127.636719v84.164063c0 37.242187 11.359375 73.0625 32.851562 103.597656 18.960938 26.9375 44.460938 47.980469 74.191407 61.320312v48.34375c0 24.996094 13.996093 33.867188 25.980469 33.867188 8.5625 0 17.125-4.226562 25.460937-12.558594l53.859375-53.859375 75.4375-.003906c48.085938 0 93.414062-18.847656 127.636719-53.066406 34.222656-34.222657 53.070312-79.550781 53.070312-127.640625zm0 0" fill="#463b85" data-original="#463B85" class="" data-old_color="#463b85" style="fill:#000000"/><path d="m468.984375 180.710938c0-48.089844-18.84375-93.417969-53.066406-127.640626-34.222657-34.222656-79.554688-53.070312-127.640625-53.070312h-53.535156v445.578125h53.539062c48.085938 0 93.414062-18.847656 127.632812-53.070313 34.222657-34.222656 53.070313-79.550781 53.074219-127.636718zm0 0" fill="#2b2256" data-original="#2B2256" class="active-path" style="fill:#000000" data-old_color="#2b2256"/><path d="m393.328125 239.878906c-8.285156 0-15-6.71875-15-15 0-34.332031-13.367187-66.605468-37.640625-90.882812-24.277344-24.273438-56.550781-37.640625-90.882812-37.640625-8.285157 0-15-6.71875-15-15 0-8.285157 6.714843-15 15-15 42.34375 0 82.152343 16.488281 112.09375 46.429687 29.941406 29.941406 46.433593 69.75 46.429687 112.09375 0 8.28125-6.714844 15-15 15zm0 0" fill="#c5e1e6" data-original="#C5E1E6" class="" data-old_color="#c5e1e6" style="fill:#FFFFFF"/><path d="m329.0625 239.875c-8.28125 0-15-6.71875-15-15 0-35.429688-28.824219-64.253906-64.257812-64.253906-8.285157 0-15-6.714844-15-15 0-8.28125 6.714843-15 15-15 51.976562 0 94.257812 42.28125 94.257812 94.253906 0 8.28125-6.714844 15-15 15zm0 0" fill="#c5e1e6" data-original="#C5E1E6" class="" data-old_color="#c5e1e6" style="fill:#FFFFFF"/><path d="m321.691406 323.3125c5.804688-5.855469 5.800782-15.300781-.019531-21.144531v-.003907l-35.617187-35.617187s-.003907-.003906-.007813-.007813c-.003906-.003906-.003906-.003906-.003906-.003906-5.851563-5.832031-15.304688-5.835937-21.164063-.015625-.011718.007813-.023437.015625-.035156.027344l-12.117188 12.113281-68.164062-68.164062 12.148438-12.148438c5.8125-5.855468 5.8125-15.304687-.011719-21.152344h.003906l-35.617187-35.617187c-.003907-.003906-.007813-.007813-.011719-.011719 0 0-.003907-.003906-.003907-.003906-5.847656-5.828125-15.304687-5.835938-21.164062-.015625-.007812.011719-.023438.015625-.035156.027344h.003906v.003906l-29.15625 29.15625c-15.621094 15.621094-15.621094 41.179687 0 56.804687l124.964844 124.972657c15.625 15.621093 41.183594 15.617187 56.804687 0l29.191407-29.191407h.003906c0-.003906.003906-.003906.007812-.007812zm0 0" fill="#e7f0ef" data-original="#E7F0EF" class="" style="fill:#FFFFFF" data-old_color="#e7f0ef"/><path d="m321.675781 302.167969v-.003907l-35.617187-35.613281v-.003906s-.007813-.003906-.011719-.007813c0-.003906 0-.003906-.003906-.003906-5.851563-5.832031-15.304688-5.835937-21.164063-.015625-.011718.007813-.019531.015625-.035156.027344l-12.117188 12.113281-17.921874-17.921875v90.890625l.882812.882813c15.625 15.621093 41.179688 15.617187 56.804688 0l29.191406-29.191407.007812-.007812c5.804688-5.855469 5.800782-15.300781-.015625-21.144531zm0 0" fill="#c5e1e6" data-original="#C5E1E6" class="" data-old_color="#c5e1e6" style="fill:#FFFFFF"/></g> </svg>
